<?xml version="1.0" encoding="UTF-8"?>
<svg version="1.1" xmlns="http://www.w3.org/2000/svg" width="512" height="512">
<path d="M0 0 C4.89556891 0.00377195 9.79111757 0.00240576 14.68668574 -0.00180173 C50.89932549 -0.03207404 87.09162129 0.23412727 123.29508418 1.12856936 C124.87453152 1.16676046 126.45397895 1.20494832 128.03342646 1.24313235 C135.46341332 1.42545869 142.89185735 1.63831553 150.31974238 1.89370608 C152.57769442 1.96915558 154.83585661 2.03848839 157.09415644 2.10269046 C187.33412604 2.96374939 212.64805986 8.60662598 234.42008418 31.25356936 C247.03053526 45.68553005 255.44687333 64.06264778 255.4422552 83.40476871 C255.44593189 84.23488001 255.44960858 85.06499132 255.45339668 85.92025751 C255.46440473 88.70039446 255.46827255 91.48049399 255.47208613 94.26064944 C255.47835321 96.25510661 255.48500023 98.24956262 255.49199885 100.24401736 C255.51302167 106.79537021 255.52340316 113.34672323 255.53336543 119.89810061 C255.53741438 122.15781741 255.54153134 124.41753408 255.54571551 126.67725062 C255.56476738 137.30045441 255.5789955 147.92365127 255.58732748 158.54686886 C255.5970845 170.78336023 255.62336396 183.01966996 255.66382837 195.25609738 C255.69407138 204.72898285 255.70880431 214.20181653 255.71210849 223.67474931 C255.71445064 229.3247651 255.72330128 234.97458687 255.74856967 240.62455058 C255.77199728 245.94913333 255.77602497 251.27339635 255.76580828 256.59801745 C255.76531628 258.5408937 255.77153631 260.48378647 255.78536433 262.42661357 C255.95942016 288.35510346 248.5360123 310.40893059 230.19352168 329.31216311 C212.99414665 346.35560022 191.44014372 352.84221787 167.78727168 353.62856936 C166.63550441 353.66917483 165.48373713 353.7097803 164.29706782 353.75161624 C161.83081372 353.83747868 159.36449176 353.92141018 156.89811152 354.00356936 C153.341404 354.12282505 149.78506285 354.25010393 146.22867793 354.37856936 C100.81843832 355.9662358 55.39702398 356.29658938 9.96352381 356.25713873 C5.11611043 356.25336513 0.26871751 356.25473474 -4.57869512 356.25894046 C-40.63059545 356.28936397 -76.66232477 356.01767458 -112.70491582 355.12856936 C-113.5094507 355.1091302 -114.31398557 355.08969104 -115.14290029 355.06966281 C-123.33978595 354.87155463 -131.53505757 354.64518204 -139.72957402 354.36343265 C-141.98752606 354.28798315 -144.24568825 354.21865034 -146.50398809 354.15444827 C-176.55994402 353.29862898 -202.08591202 347.61616962 -223.76741582 325.06606936 C-236.42692266 310.59806155 -244.8566923 292.2109858 -244.85208684 272.80767703 C-244.85576353 271.97277661 -244.85944022 271.13787618 -244.86322832 270.27767575 C-244.87423681 267.48138532 -244.87810425 264.6851321 -244.88191777 261.88882327 C-244.88818477 259.8828915 -244.89483178 257.87696088 -244.90183049 255.87103152 C-244.92285252 249.28240649 -244.93323403 242.69378129 -244.94319707 236.10513186 C-244.94724591 233.83301031 -244.95136287 231.56088888 -244.95554715 229.28876758 C-244.97459805 218.60843469 -244.98882694 207.92810869 -244.99715912 197.24776208 C-245.00691883 184.94221059 -245.03320578 172.63683958 -245.07366002 160.33135164 C-245.10389112 150.80667755 -245.11863479 141.28205498 -245.12194014 131.75733387 C-245.12428344 126.07549241 -245.13314945 120.39384376 -245.15840131 114.71205401 C-245.1818083 109.35874769 -245.18586475 104.00575941 -245.17563993 98.65241504 C-245.17514745 96.69783092 -245.18138194 94.74323046 -245.19519597 92.7886951 C-245.36562904 67.22373474 -237.66423852 45.57667785 -219.61116582 26.94888186 C-202.56650074 10.0531285 -180.65739072 3.40739573 -157.16194707 2.62856936 C-155.43073865 2.56766116 -155.43073865 2.56766116 -153.66455632 2.50552249 C-151.19410572 2.41966664 -148.72358763 2.33573468 -146.25301152 2.25356936 C-142.68532406 2.13418789 -139.11799145 2.0069697 -135.55061895 1.87856936 C-90.37709513 0.30239588 -45.19660996 -0.03884158 0 0 Z " fill="#FF0000" transform="translate(250.70491582155228,77.87143063545227)"/>
<path d="M0 0 C4.30288269 1.43429423 7.23755156 2.53950968 10.9921875 4.765625 C11.93175293 5.31855225 12.87131836 5.87147949 13.83935547 6.44116211 C14.84111816 7.03807861 15.84288086 7.63499512 16.875 8.25 C19.04159347 9.52746789 21.2082622 10.80480816 23.375 12.08203125 C24.4784375 12.73510254 25.581875 13.38817383 26.71875 14.06103516 C31.75932 17.03962198 36.81670801 19.98914228 41.875 22.9375 C42.85839355 23.51145508 43.84178711 24.08541016 44.85498047 24.67675781 C52.22338141 28.97429495 59.60892454 33.24160218 67 37.5 C87.78233978 49.47906354 108.46108827 61.60853923 129 74 C126.0566084 77.1975539 123.11220862 79.27698333 119.328125 81.3984375 C118.20116211 82.03539551 117.07419922 82.67235352 115.91308594 83.32861328 C115.31653198 83.66185608 114.71997803 83.99509888 114.10534668 84.33843994 C111.57461456 85.75232979 109.05213771 87.1806602 106.52911377 88.60824585 C105.23487932 89.34042361 103.94023941 90.07188511 102.64520264 90.80264282 C96.64808767 94.18878379 90.69331642 97.64533211 84.75 101.125 C83.77708008 101.69395996 82.80416016 102.26291992 81.80175781 102.84912109 C79.8461251 103.99309808 77.89071997 105.13746422 75.93554688 106.28222656 C70.96021441 109.19360707 65.97982558 112.09631397 61 115 C58.99997639 116.1666262 56.99997638 117.33329284 55 118.5 C51 120.83333333 47 123.16666667 43 125.5 C41.51222046 126.36794189 41.51222046 126.36794189 39.99438477 127.25341797 C38.01326779 128.40897532 36.03198774 129.56425315 34.05053711 130.71923828 C28.76019052 133.80349246 23.47353568 136.89387838 18.19140625 139.9921875 C16.52754883 140.96671875 16.52754883 140.96671875 14.83007812 141.9609375 C12.68581704 143.21699002 10.54255298 144.47474649 8.40039062 145.734375 C7.44455078 146.29382813 6.48871094 146.85328125 5.50390625 147.4296875 C4.65642822 147.92710449 3.8089502 148.42452148 2.93579102 148.93701172 C1 150 1 150 0 150 C0 100.5 0 51 0 0 Z " fill="#FFFEFE" transform="translate(206,182)"/>
</svg>
